<svg xmlns="http://www.w3.org/2000/svg" width="960" height="670" viewBox="0 0 960 670">
  <g fill="none" fill-rule="evenodd" transform="translate(134 236)">
    <path fill="#014254" d="M195.942,50.847 C195.942,49.8156615 196.457662,49.3 197.489,49.3 L207.226,49.3 C208.257338,49.3 208.773,49.8156615 208.773,50.847 L208.773,111.453 C208.773,112.484338 208.257338,113 207.226,113 L197.489,113 C196.457662,113 195.942,112.484338 195.942,111.453 L195.942,108.996 C195.942,108.753332 195.866167,108.616833 195.7145,108.5865 C195.562833,108.556167 195.426334,108.631999 195.305,108.814 C192.817654,112.090016 189.359689,113.728 184.931,113.728 C180.805646,113.728 177.150516,112.499512 173.9655,110.0425 C170.780484,107.585488 168.581339,104.35502 167.368,100.351 C166.336662,97.4389854 165.821,93.7990218 165.821,89.431 C165.821,84.9416442 166.397328,81.1803485 167.55,78.147 C168.884673,74.2643139 171.083818,71.1703449 174.1475,68.865 C177.211182,66.5596551 180.805646,65.407 184.931,65.407 C189.420356,65.407 192.878321,66.8933185 195.305,69.866 C195.426334,70.0480009 195.562833,70.108667 195.7145,70.048 C195.866167,69.987333 195.942,69.8356679 195.942,69.593 L195.942,50.847 Z M194.031,98.622 C195.244339,96.3773221 195.851,93.3743521 195.851,89.613 C195.851,85.60898 195.214006,82.4846779 193.94,80.24 C192.423326,77.8739882 190.391013,76.691 187.843,76.691 C185.052319,76.691 182.929007,77.8436551 181.473,80.149 C180.016993,82.5756788 179.289,85.760647 179.289,89.704 C179.289,93.2833512 179.925994,96.2559882 181.2,98.622 C182.656007,101.23068 184.870318,102.535 187.843,102.535 C190.512347,102.535 192.574993,101.23068 194.031,98.622 Z M239.167,113.728 C234.010308,113.728 229.612018,112.393347 225.972,109.724 C222.331982,107.054653 219.844673,103.41469 218.51,98.804 C217.660662,95.9526524 217.236,92.8586834 217.236,89.522 C217.236,85.8213148 217.690995,82.6060137 218.601,79.876 C219.99634,75.3866442 222.498815,71.8680127 226.1085,69.32 C229.718185,66.7719873 234.101308,65.498 239.258,65.498 C244.232692,65.498 248.494482,66.7719873 252.0435,69.32 C255.592518,71.8680127 258.06466,75.3563112 259.46,79.785 C260.370005,82.5756806 260.825,85.7606488 260.825,89.34 C260.825,92.4946824 260.430671,95.5583185 259.642,98.531 C258.24666,103.263024 255.744185,106.97882 252.1345,109.6785 C248.524815,112.37818 244.202359,113.728 239.167,113.728 Z M239.167,102.717 C241.108343,102.717 242.77666,102.110339 244.172,100.897 C245.56734,99.6836606 246.56833,98.015344 247.175,95.892 C247.660336,94.2539918 247.903,92.1306797 247.903,89.522 C247.903,86.9739873 247.660336,84.8203421 247.175,83.061 C246.56833,80.998323 245.56734,79.3906724 244.172,78.238 C242.77666,77.0853276 241.047677,76.509 238.985,76.509 C236.98299,76.509 235.28434,77.0853276 233.889,78.238 C232.49366,79.3906724 231.49267,80.998323 230.886,83.061 C230.400664,84.8203421 230.158,86.9739873 230.158,89.522 C230.158,92.0093458 230.400664,94.1326579 230.886,95.892 C231.49267,98.015344 232.508826,99.6836606 233.9345,100.897 C235.360174,102.110339 237.104323,102.717 239.167,102.717 Z M294.677,74.962 C294.677,75.9933385 294.161338,76.509 293.13,76.509 L284.94,76.509 C284.575998,76.509 284.394,76.6909982 284.394,77.055 L284.394,95.892 C284.394,97.89401 284.803496,99.365162 285.6225,100.3055 C286.441504,101.245838 287.760991,101.716 289.581,101.716 L292.129,101.716 C293.160338,101.716 293.676,102.231662 293.676,103.263 L293.676,111.089 C293.676,112.059672 293.160338,112.605666 292.129,112.727 C289.823655,112.848334 288.155338,112.909 287.124,112.909 C282.088641,112.909 278.327346,112.059675 275.84,110.361 C273.352654,108.662325 272.078667,105.50769 272.018,100.897 L272.018,77.055 C272.018,76.6909982 271.836002,76.509 271.472,76.509 L266.831,76.509 C265.799662,76.509 265.284,75.9933385 265.284,74.962 L265.284,67.773 C265.284,66.7416615 265.799662,66.226 266.831,66.226 L271.472,66.226 C271.836002,66.226 272.018,66.0440018 272.018,65.68 L272.018,55.397 C272.018,54.3656615 272.533662,53.85 273.565,53.85 L282.847,53.85 C283.878338,53.85 284.394,54.3656615 284.394,55.397 L284.394,65.68 C284.394,66.0440018 284.575998,66.226 284.94,66.226 L293.13,66.226 C294.161338,66.226 294.677,66.7416615 294.677,67.773 L294.677,74.962 Z M324.343,102.899 C328.34702,102.716999 331.410656,101.32168 333.534,98.713 C333.898002,98.2883312 334.292331,98.076 334.717,98.076 C335.081002,98.076 335.414665,98.2276652 335.718,98.531 L340.905,103.536 C341.269002,103.900002 341.451,104.263998 341.451,104.628 C341.451,105.052669 341.329668,105.416665 341.087,105.72 C339.08499,108.207346 336.521849,110.163826 333.3975,111.5895 C330.273151,113.015174 326.860685,113.728 323.16,113.728 C317.578639,113.728 312.952852,112.302348 309.2825,109.451 C305.612148,106.599652 303.140006,102.686692 301.866,97.712 C301.137996,95.0426533 300.774,92.2216815 300.774,89.249 C300.774,85.7303157 301.107663,82.7576788 301.775,80.331 C302.988339,75.8416442 305.430148,72.2320137 309.1005,69.502 C312.770852,66.7719864 317.123641,65.407 322.159,65.407 C328.104363,65.407 332.821149,67.1663157 336.3095,70.685 C339.797851,74.2036843 342.057662,79.1479682 343.089,85.518 C343.331668,87.52001 343.513666,89.7343212 343.635,92.161 C343.635,93.1923385 343.119338,93.708 342.088,93.708 L314.151,93.708 C313.786998,93.708 313.605,93.8899982 313.605,94.254 C313.787001,95.5280064 313.999332,96.4683303 314.242,97.075 C314.84867,98.9556761 316.046824,100.396495 317.8365,101.3975 C319.626176,102.398505 321.794987,102.899 324.343,102.899 Z M321.977,76.509 C320.035657,76.509 318.41284,76.979162 317.1085,77.9195 C315.80416,78.859838 314.909336,80.1793248 314.424,81.878 C314.120665,83.0306724 313.938667,83.7889982 313.878,84.153 C313.817333,84.5170018 313.968998,84.699 314.333,84.699 L329.803,84.699 C330.106335,84.699 330.258,84.5776679 330.258,84.335 C330.258,83.6676633 330.136668,82.9700036 329.894,82.242 C329.347997,80.4826579 328.407673,79.0873385 327.073,78.056 C325.738327,77.0246615 324.039677,76.509 321.977,76.509 Z M375.94,65.498 C380.793358,65.498 384.706318,66.9843185 387.679,69.957 C390.651682,72.9296815 392.138,76.9639745 392.138,82.06 L392.138,111.453 C392.138,112.484338 391.622338,113 390.591,113 L380.854,113 C379.822662,113 379.307,112.484338 379.307,111.453 L379.307,84.699 C379.307,82.2723212 378.639673,80.3006743 377.305,78.784 C375.970327,77.2673258 374.180678,76.509 371.936,76.509 C369.691322,76.509 367.87134,77.2673258 366.476,78.784 C365.08066,80.3006743 364.383,82.2723212 364.383,84.699 L364.383,111.453 C364.383,112.484338 363.867338,113 362.836,113 L353.099,113 C352.067662,113 351.552,112.484338 351.552,111.453 L351.552,67.773 C351.552,66.7416615 352.067662,66.226 353.099,66.226 L362.836,66.226 C363.867338,66.226 364.383,66.7416615 364.383,67.773 L364.383,70.321 C364.383,70.5636679 364.443666,70.715333 364.565,70.776 C364.686334,70.836667 364.807666,70.7760009 364.929,70.594 C367.416346,67.1966497 371.086642,65.498 375.94,65.498 Z M412.704,113 C411.854662,113 411.278335,112.575338 410.975,111.726 L396.87,67.955 C396.809333,67.8336661 396.779,67.6516679 396.779,67.409 C396.779,67.0449982 396.900332,66.7568344 397.143,66.5445 C397.385668,66.3321656 397.719331,66.226 398.144,66.226 L408.882,66.226 C409.731338,66.226 410.307665,66.6809955 410.611,67.591 L417.891,94.891 C417.951667,95.1336679 418.072999,95.255 418.255,95.255 C418.437001,95.255 418.558333,95.1336679 418.619,94.891 L425.899,67.591 C426.202335,66.6809955 426.778662,66.226 427.628,66.226 L438.366,66.317 C438.912003,66.317 439.306332,66.4838317 439.549,66.8175 C439.791668,67.1511683 439.822001,67.5606642 439.64,68.046 L425.626,111.726 C425.322665,112.575338 424.716005,113 423.806,113 L412.704,113 Z M443.098,91.615 C442.066662,91.615 441.551,91.0993385 441.551,90.068 L441.551,82.151 C441.551,81.1196615 442.066662,80.604 443.098,80.604 L471.945,80.604 C472.976338,80.604 473.492,81.1196615 473.492,82.151 L473.492,90.068 C473.492,91.0993385 472.976338,91.615 471.945,91.615 L443.098,91.615 Z M482.592,113 C481.560662,113 481.045,112.484338 481.045,111.453 L481.045,50.847 C481.045,49.8156615 481.560662,49.3 482.592,49.3 L492.329,49.3 C493.360338,49.3 493.876,49.8156615 493.876,50.847 L493.876,111.453 C493.876,112.484338 493.360338,113 492.329,113 L482.592,113 Z M510.62,61.767 C508.314655,61.767 506.434007,61.0541738 504.978,59.6285 C503.521993,58.2028262 502.794,56.3676779 502.794,54.123 C502.794,51.8783221 503.521993,50.0431738 504.978,48.6175 C506.434007,47.1918262 508.314655,46.479 510.62,46.479 C512.986012,46.479 514.881826,47.1766597 516.3075,48.572 C517.733174,49.9673403 518.446,51.8176551 518.446,54.123 C518.446,56.4283449 517.733174,58.2786597 516.3075,59.674 C514.881826,61.0693403 512.986012,61.767 510.62,61.767 Z M505.797,113 C504.765662,113 504.25,112.484338 504.25,111.453 L504.25,67.773 C504.25,66.7416615 504.765662,66.226 505.797,66.226 L515.534,66.226 C516.565338,66.226 517.081,66.7416615 517.081,67.773 L517.081,111.453 C517.081,112.484338 516.565338,113 515.534,113 L505.797,113 Z M551.57,65.498 C556.423358,65.498 560.336318,66.9843185 563.309,69.957 C566.281682,72.9296815 567.768,76.9639745 567.768,82.06 L567.768,111.453 C567.768,112.484338 567.252338,113 566.221,113 L556.484,113 C555.452662,113 554.937,112.484338 554.937,111.453 L554.937,84.699 C554.937,82.2723212 554.269673,80.3006743 552.935,78.784 C551.600327,77.2673258 549.810678,76.509 547.566,76.509 C545.321322,76.509 543.50134,77.2673258 542.106,78.784 C540.71066,80.3006743 540.013,82.2723212 540.013,84.699 L540.013,111.453 C540.013,112.484338 539.497338,113 538.466,113 L528.729,113 C527.697662,113 527.182,112.484338 527.182,111.453 L527.182,67.773 C527.182,66.7416615 527.697662,66.226 528.729,66.226 L538.466,66.226 C539.497338,66.226 540.013,66.7416615 540.013,67.773 L540.013,70.321 C540.013,70.5636679 540.073666,70.715333 540.195,70.776 C540.316334,70.836667 540.437666,70.7760009 540.559,70.594 C543.046346,67.1966497 546.716642,65.498 551.57,65.498 Z M603.804,74.962 C603.804,75.9933385 603.288338,76.509 602.257,76.509 L594.067,76.509 C593.702998,76.509 593.521,76.6909982 593.521,77.055 L593.521,95.892 C593.521,97.89401 593.930496,99.365162 594.7495,100.3055 C595.568504,101.245838 596.887991,101.716 598.708,101.716 L601.256,101.716 C602.287338,101.716 602.803,102.231662 602.803,103.263 L602.803,111.089 C602.803,112.059672 602.287338,112.605666 601.256,112.727 C598.950655,112.848334 597.282338,112.909 596.251,112.909 C591.215641,112.909 587.454346,112.059675 584.967,110.361 C582.479654,108.662325 581.205667,105.50769 581.145,100.897 L581.145,77.055 C581.145,76.6909982 580.963002,76.509 580.599,76.509 L575.958,76.509 C574.926662,76.509 574.411,75.9933385 574.411,74.962 L574.411,67.773 C574.411,66.7416615 574.926662,66.226 575.958,66.226 L580.599,66.226 C580.963002,66.226 581.145,66.0440018 581.145,65.68 L581.145,55.397 C581.145,54.3656615 581.660662,53.85 582.692,53.85 L591.974,53.85 C593.005338,53.85 593.521,54.3656615 593.521,55.397 L593.521,65.68 C593.521,66.0440018 593.702998,66.226 594.067,66.226 L602.257,66.226 C603.288338,66.226 603.804,66.7416615 603.804,67.773 L603.804,74.962 Z M633.47,102.899 C637.47402,102.716999 640.537656,101.32168 642.661,98.713 C643.025002,98.2883312 643.419331,98.076 643.844,98.076 C644.208002,98.076 644.541665,98.2276652 644.845,98.531 L650.032,103.536 C650.396002,103.900002 650.578,104.263998 650.578,104.628 C650.578,105.052669 650.456668,105.416665 650.214,105.72 C648.21199,108.207346 645.648849,110.163826 642.5245,111.5895 C639.400151,113.015174 635.987685,113.728 632.287,113.728 C626.705639,113.728 622.079852,112.302348 618.4095,109.451 C614.739148,106.599652 612.267006,102.686692 610.993,97.712 C610.264996,95.0426533 609.901,92.2216815 609.901,89.249 C609.901,85.7303157 610.234663,82.7576788 610.902,80.331 C612.115339,75.8416442 614.557148,72.2320137 618.2275,69.502 C621.897852,66.7719864 626.250641,65.407 631.286,65.407 C637.231363,65.407 641.948149,67.1663157 645.4365,70.685 C648.924851,74.2036843 651.184662,79.1479682 652.216,85.518 C652.458668,87.52001 652.640666,89.7343212 652.762,92.161 C652.762,93.1923385 652.246338,93.708 651.215,93.708 L623.278,93.708 C622.913998,93.708 622.732,93.8899982 622.732,94.254 C622.914001,95.5280064 623.126332,96.4683303 623.369,97.075 C623.97567,98.9556761 625.173824,100.396495 626.9635,101.3975 C628.753176,102.398505 630.921987,102.899 633.47,102.899 Z M631.104,76.509 C629.162657,76.509 627.53984,76.979162 626.2355,77.9195 C624.93116,78.859838 624.036336,80.1793248 623.551,81.878 C623.247665,83.0306724 623.065667,83.7889982 623.005,84.153 C622.944333,84.5170018 623.095998,84.699 623.46,84.699 L638.93,84.699 C639.233335,84.699 639.385,84.5776679 639.385,84.335 C639.385,83.6676633 639.263668,82.9700036 639.021,82.242 C638.474997,80.4826579 637.534673,79.0873385 636.2,78.056 C634.865327,77.0246615 633.166677,76.509 631.104,76.509 Z M683.975,65.589 C685.916343,65.589 687.523994,65.9529964 688.798,66.681 C689.526004,67.0450018 689.799001,67.6819955 689.617,68.592 L687.888,78.147 C687.827333,78.6930027 687.660501,79.0266661 687.3875,79.148 C687.114499,79.2693339 686.67467,79.2693339 686.068,79.148 C685.097328,78.9053321 684.217671,78.784 683.429,78.784 C683.004331,78.784 682.306672,78.8446661 681.336,78.966 C679.151989,79.1480009 677.301674,79.9518262 675.785,81.3775 C674.268326,82.8031738 673.51,84.6989882 673.51,87.065 L673.51,111.453 C673.51,112.484338 672.994338,113 671.963,113 L662.226,113 C661.194662,113 660.679,112.484338 660.679,111.453 L660.679,67.773 C660.679,66.7416615 661.194662,66.226 662.226,66.226 L671.963,66.226 C672.994338,66.226 673.51,66.7416615 673.51,67.773 L673.51,70.594 C673.51,70.8366679 673.570666,70.988333 673.692,71.049 C673.813334,71.109667 673.964999,71.0490009 674.147,70.867 C676.573679,67.3483157 679.849646,65.589 683.975,65.589 Z"/>
    <path fill="#32CEA4" d="M12.3641304,115 C8.83150408,115 5.88769293,113.771689 3.5326087,111.315029 C1.17752446,108.858369 0,105.895971 0,102.427746 C0,99.0558598 1.26810326,96.1416308 3.80434783,93.6849711 C6.34059239,91.2283114 9.19382473,90 12.3641304,90 C15.7155965,90 18.6594076,91.2283114 21.1956522,93.6849711 C23.7318967,96.1416308 25,99.0558598 25,102.427746 C25,105.895971 23.7771861,108.858369 21.3315217,111.315029 C18.8858573,113.771689 15.8967568,115 12.3641304,115 Z"/>
    <path fill="#3CD7AD" d="M68.5434609,125.282122 C65.6620659,125.282122 62.960758,124.190335 60.9797989,122.188726 L13.7969549,73.0583244 C10.7737288,69.2731329 11.6164914,63.9992511 15.938584,59.4501398 C20.0805893,54.9010285 23.6979016,53.1759632 29.1043661,56.8634883 L63.6811068,81.7926181 C65.6620659,83.6122626 68.7235481,83.2483337 70.3443328,81.0647603 L130.817167,3.28805626 C134.418911,-1.62498393 139.866166,-0.533197218 144.72852,3.28805626 C149.590874,6.92734529 152.247543,11.8403855 148.465711,16.7534257 L77.3677333,120.733011 C75.3867742,123.280513 72.5053791,124.918193 69.4438969,125.100158 C69.0837225,125.282122 68.9036353,125.282122 68.5434609,125.282122 Z"/>
  </g>
</svg>
